<svg width="24" height="24" viewBox="0 0 24 24" fill="none" xmlns="http://www.w3.org/2000/svg">
<g clip-path="url(#clip0_2_1598)">
<path d="M20 1H4C2.34315 1 1 2.34315 1 4V20C1 21.6569 2.34315 23 4 23H20C21.6569 23 23 21.6569 23 20V4C23 2.34315 21.6569 1 20 1Z" fill="#524D9B" stroke="#E8E0F0" stroke-miterlimit="10"/>
<path d="M5.6 3.00001C5.83418 3.09637 6.03188 3.26434 6.1648 3.47988C6.29772 3.69543 6.35905 3.9475 6.34 4.20001C6.34664 4.44693 6.28057 4.69035 6.15 4.90001C6.01688 5.10498 5.82527 5.26523 5.6 5.36001C5.33789 5.47187 5.0549 5.52642 4.77 5.52001H4V6.52001H3.2V2.89001H4.77C5.05133 2.86771 5.33419 2.9052 5.6 3.00001ZM5.29 4.66001C5.35621 4.60367 5.40865 4.53293 5.44332 4.4532C5.47798 4.37347 5.49395 4.28686 5.49 4.20001C5.49551 4.11151 5.48031 4.02295 5.44559 3.94136C5.41087 3.85977 5.35759 3.7874 5.29 3.73001C5.12418 3.61245 4.92277 3.55592 4.72 3.57001H4V4.83001H4.68C4.89738 4.851 5.1148 4.79041 5.29 4.66001Z" fill="#E8E0F0"/>
<path d="M6.93 2.89001H8.58C8.92559 2.88761 9.26732 2.96279 9.58 3.11001C9.86863 3.24898 10.1115 3.46757 10.28 3.74001C10.4601 4.04139 10.5471 4.38931 10.53 4.74001C10.5471 5.0907 10.4601 5.43863 10.28 5.74001C10.1115 6.01245 9.86863 6.23104 9.58 6.37001C9.26732 6.51722 8.92559 6.5924 8.58 6.59001H6.93V2.89001ZM8.53 5.82001C8.84804 5.83741 9.16028 5.72975 9.4 5.52001C9.50844 5.41384 9.59305 5.28582 9.64823 5.14444C9.7034 5.00306 9.72786 4.85157 9.72 4.70001C9.72786 4.54845 9.7034 4.39696 9.64823 4.25558C9.59305 4.1142 9.50844 3.98618 9.4 3.88001C9.16028 3.67027 8.84804 3.5626 8.53 3.58001H7.77V5.82001H8.53Z" fill="#E8E0F0"/>
<path d="M12 3.56001V4.56001H13.68V5.23001H12V6.51001H11.2V2.89001H13.93V3.56001H12Z" fill="#E8E0F0"/>
<path d="M12 20.72L8.89 17.62C8.25 16.98 8.1 15.51 8.49 13.92C8.8112 12.717 9.39523 11.6002 10.2 10.65L12 8.45001L13.79 10.65C14.5948 11.6002 15.1788 12.717 15.5 13.92C15.89 15.51 15.74 16.98 15.1 17.62L12 20.72Z" fill="#524D9B" stroke="#E8E0F0" stroke-miterlimit="10"/>
<path d="M14.5 22.95H9.48L10.1 18.82H13.9L14.5 22.95Z" fill="#524D9B" stroke="#E8E0F0" stroke-miterlimit="10"/>
<path d="M11.99 15.56C12.5257 15.56 12.96 15.1257 12.96 14.59C12.96 14.0543 12.5257 13.62 11.99 13.62C11.4543 13.62 11.02 14.0543 11.02 14.59C11.02 15.1257 11.4543 15.56 11.99 15.56Z" fill="#E8E0F0"/>
<path d="M12 8.45001V14.59" stroke="#E8E0F0" stroke-miterlimit="10"/>
</g>
<defs>
<clipPath id="clip0_2_1598">
<rect width="24" height="24" fill="white"/>
</clipPath>
</defs>
</svg>
