<svg width="36" height="36" viewBox="0 0 36 36" fill="none" xmlns="http://www.w3.org/2000/svg">
<path d="M15.5099 24.0002V24.5123C15.5099 25.1725 15.7724 25.8056 16.2394 26.2723C16.7064 26.7389 17.3398 27.0008 18 27.0003V27.0003C18.6603 27.0006 19.2936 26.7384 19.7606 26.2716C20.2276 25.8048 20.49 25.1716 20.49 24.5113V24.0002" stroke="#7C4DFF" stroke-width="1.5" stroke-linecap="round" stroke-linejoin="round"/>
<path fill-rule="evenodd" clip-rule="evenodd" d="M23.9471 24.0003C25.0809 24.0003 26.0001 23.0812 26.0001 21.9473V21.9473C25.9996 21.3713 25.771 20.819 25.3641 20.4113L24.0001 19.0483V15.0002C24.0001 11.6865 21.3138 9.00012 18 9.00012V9.00012C14.6862 9.00012 11.9999 11.6865 11.9999 15.0002V19.0483L10.6359 20.4113C10.229 20.819 10.0003 21.3713 9.99988 21.9473V21.9473C9.99988 22.4918 10.2162 23.014 10.6012 23.399C10.9862 23.784 11.5084 24.0003 12.0529 24.0003H23.9471Z" stroke="#7C4DFF" stroke-width="1.5" stroke-linecap="round" stroke-linejoin="round"/>
<rect x="0.5" y="0.5" width="35" height="35" rx="9.5" stroke="#E3E3E3"/>
</svg>
