<svg width="24" height="24" viewBox="0 0 24 24" fill="none" xmlns="http://www.w3.org/2000/svg">
<path d="M8.57957 17.0022H4.99708C3.89162 17.0022 2.99625 16.1068 2.99625 15.0013V4.99717C2.99625 3.89171 3.89162 2.99634 4.99708 2.99634H15.0012C16.1067 2.99634 17.0021 3.89171 17.0021 4.99717V7.99842" stroke="#545454" stroke-width="1.5" stroke-linecap="round" stroke-linejoin="round"/>
<path d="M7.49812 7.49821H12.5002" stroke="#545454" stroke-width="1.5" stroke-linecap="round" stroke-linejoin="round"/>
<path d="M9.99916 12.5003V7.49821" stroke="#545454" stroke-width="1.5" stroke-linecap="round" stroke-linejoin="round"/>
<path fill-rule="evenodd" clip-rule="evenodd" d="M15.6235 20.6817L21.681 14.6242C22.1112 14.194 22.1112 13.4977 21.681 13.0685L19.9353 11.3228C19.5051 10.8926 18.8088 10.8926 18.3797 11.3228L12.3221 17.3803C12.115 17.5874 12 17.8665 12 18.1576V21.0038H14.8462C15.1373 21.0038 15.4164 20.8888 15.6235 20.6817Z" stroke="#545454" stroke-width="1.5" stroke-linecap="round" stroke-linejoin="round"/>
</svg>
