<svg width="24" height="24" viewBox="0 0 24 24" fill="none" xmlns="http://www.w3.org/2000/svg">
<g clip-path="url(#clip0_2_1610)">
<path d="M13.1902 1.00003H3.48017C2.1105 1.00003 1.00017 2.11036 1.00017 3.48003V13.19C1.00017 14.5597 2.1105 15.67 3.48017 15.67H13.1902C14.5598 15.67 15.6702 14.5597 15.6702 13.19V3.48003C15.6702 2.11036 14.5598 1.00003 13.1902 1.00003Z" fill="#E8E0F0"/>
<path d="M6.44017 15.67H3.44017C2.78765 15.6595 2.16558 15.3922 1.70883 14.9261C1.25207 14.46 0.99745 13.8326 1.00017 13.18V3.48003C1.00017 2.82229 1.26145 2.1915 1.72654 1.72641C2.19163 1.26132 2.82243 1.00003 3.48017 1.00003H13.1802C13.8379 1.00003 14.4687 1.26132 14.9338 1.72641C15.3989 2.1915 15.6602 2.82229 15.6602 3.48003V8.33003" stroke="#524D9B" stroke-width="1.1" stroke-miterlimit="10"/>
<path d="M4.51985 17.7401L6.53985 15.6701L4.51985 13.5901" stroke="#524D9B" stroke-width="1.1" stroke-miterlimit="10"/>
<path d="M5.60004 3.00004C5.83423 3.0964 6.03193 3.26437 6.16485 3.47992C6.29777 3.69546 6.35909 3.94753 6.34004 4.20004C6.34669 4.44696 6.28062 4.69038 6.15004 4.90005C6.01692 5.10501 5.82531 5.26526 5.60004 5.36005C5.33793 5.4719 5.05495 5.52645 4.77004 5.52005H4.00004V6.52005H3.20004V2.89004H4.77004C5.05137 2.86774 5.33423 2.90523 5.60004 3.00004ZM5.29004 4.66004C5.35625 4.6037 5.4087 4.53296 5.44336 4.45323C5.47803 4.3735 5.49399 4.28689 5.49004 4.20004C5.49556 4.11155 5.48035 4.02298 5.44563 3.94139C5.41092 3.8598 5.35764 3.78743 5.29004 3.73004C5.12422 3.61248 4.92282 3.55595 4.72004 3.57004H4.00004V4.83004H4.68004C4.89743 4.85104 5.11485 4.79044 5.29004 4.66004Z" fill="#524D9B"/>
<path d="M6.93019 2.89004H8.58019C8.92578 2.88764 9.26751 2.96282 9.58019 3.11004C9.86882 3.24901 10.1117 3.4676 10.2802 3.74004C10.4603 4.04142 10.5473 4.38934 10.5302 4.74004C10.5473 5.09073 10.4603 5.43866 10.2802 5.74004C10.1117 6.01248 9.86882 6.23107 9.58019 6.37004C9.26751 6.51726 8.92578 6.59244 8.58019 6.59004H6.93019V2.89004ZM8.53019 5.82004C8.84823 5.83744 9.16047 5.72978 9.40019 5.52004C9.50863 5.41387 9.59324 5.28585 9.64842 5.14447C9.70359 5.00309 9.72805 4.8516 9.72019 4.70004C9.72805 4.54848 9.70359 4.39699 9.64842 4.25561C9.59324 4.11423 9.50863 3.98621 9.40019 3.88004C9.16047 3.6703 8.84823 3.56264 8.53019 3.58004H7.77019V5.82004H8.53019Z" fill="#524D9B"/>
<path d="M11.9999 3.56004V4.56004H13.6799V5.23004H11.9999V6.51004H11.1999V2.89005H13.9299V3.56004H11.9999Z" fill="#524D9B"/>
<path d="M22.9999 8.33008H8.32991V23.0001H22.9999V8.33008Z" fill="white" stroke="#008D36" stroke-miterlimit="10"/>
<path d="M12.389 14.2651V15.0351H13.934V15.8001H12.389V17.0001H11.399V13.5001H14.144V14.2651H12.389ZM14.5132 14.2901H15.4632V17.0001H14.5132V14.2901ZM14.9882 13.9901C14.8149 13.9901 14.6749 13.9417 14.5682 13.8451C14.4615 13.7484 14.4082 13.6284 14.4082 13.4851C14.4082 13.3417 14.4615 13.2217 14.5682 13.1251C14.6749 13.0284 14.8149 12.9801 14.9882 12.9801C15.1615 12.9801 15.3015 13.0267 15.4082 13.1201C15.5149 13.2101 15.5682 13.3267 15.5682 13.4701C15.5682 13.6201 15.5149 13.7451 15.4082 13.8451C15.3015 13.9417 15.1615 13.9901 14.9882 13.9901ZM16.0806 13.2901H17.0306V17.0001H16.0806V13.2901ZM20.418 15.6501C20.418 15.6567 20.413 15.7351 20.403 15.8851H18.433C18.473 16.0251 18.5496 16.1334 18.663 16.2101C18.7796 16.2834 18.9246 16.3201 19.098 16.3201C19.228 16.3201 19.3396 16.3017 19.433 16.2651C19.5296 16.2284 19.6263 16.1684 19.723 16.0851L20.223 16.6051C19.9596 16.8984 19.5746 17.0451 19.068 17.0451C18.7513 17.0451 18.473 16.9851 18.233 16.8651C17.993 16.7451 17.8063 16.5784 17.673 16.3651C17.543 16.1517 17.478 15.9101 17.478 15.6401C17.478 15.3734 17.5413 15.1351 17.668 14.9251C17.798 14.7117 17.9763 14.5451 18.203 14.4251C18.4296 14.3051 18.6846 14.2451 18.968 14.2451C19.238 14.2451 19.483 14.3017 19.703 14.4151C19.923 14.5251 20.0963 14.6867 20.223 14.9001C20.353 15.1101 20.418 15.3601 20.418 15.6501ZM18.973 14.9201C18.8263 14.9201 18.703 14.9617 18.603 15.0451C18.5063 15.1284 18.4446 15.2417 18.418 15.3851H19.528C19.5013 15.2417 19.438 15.1284 19.338 15.0451C19.2413 14.9617 19.1196 14.9201 18.973 14.9201Z" fill="#008D36"/>
</g>
<defs>
<clipPath id="clip0_2_1610">
<rect width="24" height="24" fill="white"/>
</clipPath>
</defs>
</svg>
