<svg width="36" height="36" viewBox="0 0 36 36" fill="none" xmlns="http://www.w3.org/2000/svg">
<path d="M11.5 17.997C11.5 17.7219 11.2749 17.4968 10.9998 17.4998C10.7247 17.4998 10.4996 17.7249 10.4996 18C10.4996 18.2751 10.7247 18.5002 10.9998 18.5002C11.2749 18.5002 11.5 18.2751 11.5 17.997" stroke="#7C4DFF" stroke-width="2.5" stroke-linecap="round" stroke-linejoin="round"/>
<path d="M18.5002 17.997C18.5002 17.7219 18.2751 17.4968 18 17.4998C17.7249 17.4998 17.4998 17.7249 17.4998 18C17.4998 18.2751 17.7249 18.5002 18 18.5002C18.2751 18.5002 18.5002 18.2751 18.5002 17.997" stroke="#7C4DFF" stroke-width="2.5" stroke-linecap="round" stroke-linejoin="round"/>
<path d="M25.5 17.997C25.5 17.7219 25.2749 17.4968 24.9998 17.4998C24.7247 17.4998 24.4996 17.7249 24.4996 18C24.4996 18.2751 24.7247 18.5002 24.9998 18.5002C25.2749 18.5002 25.5 18.2751 25.5 17.997" stroke="#7C4DFF" stroke-width="2.5" stroke-linecap="round" stroke-linejoin="round"/>
<rect x="35.5" y="0.5" width="35" height="35" rx="9.5" transform="rotate(90 35.5 0.5)" stroke="#E3E3E3"/>
</svg>
