<svg width="24" height="24" viewBox="0 0 24 24" fill="none" xmlns="http://www.w3.org/2000/svg">
<g clip-path="url(#clip0_2_1586)">
<path d="M20 1H4C2.34315 1 1 2.34315 1 4V20C1 21.6569 2.34315 23 4 23H20C21.6569 23 23 21.6569 23 20V4C23 2.34315 21.6569 1 20 1Z" fill="#E8E0F0"/>
<path d="M5.6 2.99998C5.82463 3.09581 6.01596 3.25583 6.15 3.45998C6.28112 3.66941 6.34724 3.913 6.34 4.15998C6.34664 4.4069 6.28057 4.65032 6.15 4.85998C6.01538 5.06124 5.82392 5.21788 5.6 5.30998C5.33789 5.42184 5.0549 5.47639 4.77 5.46998H4V6.46998H3.2V2.88998H4.77C5.05133 2.86768 5.33419 2.90517 5.6 2.99998ZM5.29 4.65998C5.35621 4.60364 5.40865 4.5329 5.44332 4.45317C5.47798 4.37344 5.49395 4.28683 5.49 4.19998C5.49551 4.11148 5.48031 4.02292 5.44559 3.94133C5.41087 3.85974 5.35759 3.78737 5.29 3.72998C5.12418 3.61242 4.92277 3.55589 4.72 3.56998H4V4.82998H4.68C4.89738 4.85097 5.1148 4.79038 5.29 4.65998Z" fill="#524D9B"/>
<path d="M6.93 2.89001H8.58C8.92559 2.88761 9.26732 2.96279 9.58 3.11001C9.86863 3.24898 10.1115 3.46757 10.28 3.74001C10.4601 4.04139 10.5471 4.38931 10.53 4.74001C10.5471 5.0907 10.4601 5.43863 10.28 5.74001C10.1115 6.01245 9.86863 6.23104 9.58 6.37001C9.26732 6.51722 8.92559 6.5924 8.58 6.59001H6.93V2.89001ZM8.53 5.82001C8.84804 5.83741 9.16028 5.72975 9.4 5.52001C9.50844 5.41384 9.59305 5.28582 9.64823 5.14444C9.7034 5.00306 9.72786 4.85157 9.72 4.70001C9.72786 4.54845 9.7034 4.39696 9.64823 4.25558C9.59305 4.1142 9.50844 3.98618 9.4 3.88001C9.16028 3.67027 8.84804 3.5626 8.53 3.58001H7.77V5.82001H8.53Z" fill="#524D9B"/>
<path d="M12 3.56001V4.56001H13.68V5.23001H12V6.51001H11.2V2.89001H13.93V3.56001H12Z" fill="#524D9B"/>
<path d="M17.6945 5.88222L18.5007 6.68832C18.6882 6.87586 18.7935 7.13021 18.7935 7.39543C18.7935 7.66064 18.6882 7.915 18.5007 8.10253L9.86688 16.7363L7.64656 14.516L16.2803 5.88222C16.4679 5.69468 16.7222 5.58932 16.9874 5.58932C17.2527 5.58932 17.507 5.69468 17.6945 5.88222Z" fill="white" stroke="#524D9B" stroke-linejoin="round"/>
<path d="M8.75 15.62L7.64 14.51L6.36 18.01L9.86 16.72L8.75 15.62Z" fill="white" stroke="#524D9B" stroke-linejoin="round"/>
<path d="M15 7.15002L17.21 9.36002" stroke="#524D9B" stroke-linejoin="round"/>
<path d="M6.36 18C6.36 18 7.78 21.15 12.57 17.45C17.36 13.75 15.57 18.02 18.26 18.6C19.8956 18.9274 21.5945 18.6084 23 17.71V4C23 3.20435 22.6839 2.44129 22.1213 1.87868C21.5587 1.31607 20.7956 1 20 1H4C3.20435 1 2.44129 1.31607 1.87868 1.87868C1.31607 2.44129 1 3.20435 1 4V20C1 20.7956 1.31607 21.5587 1.87868 22.1213C2.44129 22.6839 3.20435 23 4 23H20" stroke="#524D9B" stroke-miterlimit="10"/>
</g>
<defs>
<clipPath id="clip0_2_1586">
<rect width="24" height="24" fill="white"/>
</clipPath>
</defs>
</svg>
