<svg width="24" height="24" viewBox="0 0 24 24" fill="none" xmlns="http://www.w3.org/2000/svg">
<path fill-rule="evenodd" clip-rule="evenodd" d="M15.9707 4.5739C13.1406 4.89482 11.0018 7.28804 10.9996 10.1362V10.4904C12.2295 9.00846 14.0451 8.13737 15.9707 8.10537V9.97415C15.9707 10.2454 16.1257 10.4927 16.3698 10.6111C16.6138 10.7295 16.904 10.6982 17.1171 10.5304L21.7441 6.87586C21.9085 6.74649 22.0045 6.54885 22.0045 6.33963C22.0045 6.13042 21.9085 5.93277 21.7441 5.80341L17.1171 2.14989C16.9044 1.98135 16.6139 1.94943 16.3697 2.06774C16.1254 2.18604 15.9703 2.4337 15.9707 2.70512V4.5739Z" stroke="#545454" stroke-width="1.5" stroke-linecap="round" stroke-linejoin="round"/>
<path d="M21.0037 12V16.0017C21.0037 18.7642 18.7642 21.0037 16.0017 21.0037H7.99833C5.23576 21.0037 2.99625 18.7642 2.99625 16.0017V7.99833C2.99625 5.23576 5.23576 2.99625 7.99833 2.99625H10.9996" stroke="#545454" stroke-width="1.5" stroke-linecap="round" stroke-linejoin="round"/>
</svg>
